Coordinates
version=1
nRows=19
nColumns=24
inDegrees=yes

Units are S.I. units (second, meters, Newtons, ...)
Angles are in degrees.

endheader
time	pelvis_tilt	pelvis_list	pelvis_rotation	pelvis_tx	pelvis_ty	pelvis_tz	hip_flexion_r	hip_adduction_r	hip_rotation_r	knee_angle_r	ankle_angle_r	subtalar_angle_r	mtp_angle_r	hip_flexion_l	hip_adduction_l	hip_rotation_l	knee_angle_l	ankle_angle_l	subtalar_angle_l	mtp_angle_l	lumbar_extension	lumbar_bending	lumbar_rotation
      5.55500000	     -4.36582858	     14.66555332	     -6.90128170	     -0.91484895	     -0.02879889	     -0.31819815	     10.95028573	    -19.98144907	     -2.53738329	    -62.18083892	    -28.50053690	     -8.87484067	     20.65226314	     20.13194468	     17.28796578	     -6.91694193	    -15.98333046	      1.37753749	     -5.55129483	      0.05166662	      3.24196965	    -14.95857126	      6.95431975
      5.56000000	     -4.24430430	     14.59522750	     -7.02308995	     -0.90827965	     -0.02744015	     -0.31829693	     11.87235144	    -19.84995566	     -2.18077205	    -63.06050232	    -27.02425286	     -9.50259094	     20.81887887	     19.24860970	     17.31530452	     -6.95102271	    -15.40578766	      1.48526081	     -5.40395713	      0.81426674	      3.08547581	    -14.84850563	      6.79265441
      5.56500000	     -4.19433828	     14.41086377	     -7.01543507	     -0.90155922	     -0.02602196	     -0.31854670	     12.74980723	    -19.60422435	     -2.04441620	    -63.76695268	    -25.74055893	    -10.32261541	     21.10851529	     18.39847197	     17.27296101	     -6.72926160	    -14.87172940	      1.73288033	     -5.31010364	      0.90281680	      2.99114291	    -14.61544622	      6.50429000
      5.57000000	     -4.10662844	     14.30340366	     -7.13222271	     -0.89499108	     -0.02470288	     -0.31870845	     13.69483210	    -19.40615926	     -1.69117293	    -64.50141845	    -24.14963464	    -10.58075617	     21.29646562	     17.55793000	     17.27944737	     -6.65324964	    -14.31229837	      1.78089304	     -5.34196422	      1.55952662	      2.87751098	    -14.44694246	      6.34060320
      5.57500000	     -4.08094983	     14.08212729	     -7.19978583	     -0.88828132	     -0.02335425	     -0.31886008	     14.62448712	    -19.05188619	     -1.42716391	    -65.10343133	    -22.70747735	    -10.91682290	     21.30868403	     16.74385710	     17.17528045	     -6.40781614	    -13.75762595	      1.80581555	     -5.45705746	      2.41138767	      2.83811596	    -14.15682981	      6.20408195
      5.58000000	     -4.03716130	     13.78160999	     -7.26183974	     -0.88176872	     -0.02198697	     -0.31901841	     15.51583175	    -18.58477919	     -1.20093182	    -65.60323393	    -21.58090717	    -11.48241392	     21.53668902	     15.96496892	     16.98948145	     -6.15676068	    -13.33743477	      2.04226147	     -5.49758738	      2.47624898	      2.73196112	    -13.78584526	      5.99713084
      5.58500000	     -4.01255126	     13.48118216	     -7.33137214	     -0.87518360	     -0.02065167	     -0.31911229	     16.40598352	    -18.08880571	     -0.94408239	    -66.03126625	    -20.42631806	    -11.83812169	     21.74699444	     15.20039563	     16.79774076	     -5.87007596	    -12.90671753	      2.21889980	     -5.60544792	      2.48060206	      2.67198415	    -13.42020216	      5.85940598
      5.59000000	     -3.99808327	     13.26135804	     -7.39807292	     -0.86857021	     -0.01948752	     -0.31930234	     17.33201909	    -17.68765436	     -0.65998011	    -66.45302086	    -19.18528177	    -11.93783536	     21.80841737	     14.45638062	     16.71048117	     -5.46199427	    -12.46774399	      2.36140199	     -5.91125461	      2.25144183	      2.64060494	    -13.12350606	      5.71388632
      5.59500000	     -3.99340484	     12.91973395	     -7.45627731	     -0.86200403	     -0.01826177	     -0.31938498	     18.20125302	    -17.11476251	     -0.44262688	    -66.73917192	    -18.20333974	    -12.26278073	     21.88967767	     13.73367843	     16.47350755	     -5.11941942	    -12.09649794	      2.58477872	     -6.07947367	      2.05715032	      2.60113265	    -12.71232315	      5.59235597
      5.60000000	     -3.98644736	     12.66351466	     -7.41629303	     -0.85536313	     -0.01712517	     -0.31966534	     19.05852977	    -16.68581590	     -0.34869675	    -67.04831094	    -16.91844200	    -12.31083079	     20.61489460	     12.98661452	     16.38933612	     -4.29717456	    -11.78050140	      3.30371706	     -6.33987825	     -1.06079321	      2.56181882	    -12.38794790	      5.32095602
      5.60500000	     -3.97541308	     12.34961362	     -7.51670068	     -0.84887984	     -0.01602674	     -0.31965374	     19.92550354	    -16.09534715	     -0.06566895	    -67.21253610	    -16.07422891	    -12.51525337	     20.80263507	     12.27571080	     16.15665959	     -4.01713766	    -11.40971763	      3.53490291	     -6.45455440	     -1.14991846	      2.52664886	    -12.00642420	      5.23654811
      5.61000000	     -3.91534814	     12.13038845	     -7.56872254	     -0.84226945	     -0.01496997	     -0.31983961	     20.70943725	    -15.66427712	      0.17618880	    -67.32564153	    -14.98227362	    -12.33623066	     20.92655276	     11.45044410	     16.08693686	     -3.39301105	    -10.92285383	      3.63680209	     -7.00718029	     -2.03022620	      2.46068121	    -11.72417410	      5.15900951
      5.61500000	     -3.88783414	     11.82302465	     -7.57444932	     -0.83582275	     -0.01385192	     -0.31994455	     21.48446688	    -15.11593554	      0.28127666	    -67.34437173	    -14.06948250	    -12.47983081	     20.29527411	     10.70896352	     15.90704010	     -2.66817004	    -10.67643416	      4.74640536	     -7.00615800	     -6.64036557	      2.38541623	    -11.36274900	      4.96201146
      5.62000000	     -3.92294571	     11.49717952	     -7.62160085	     -0.82940134	     -0.01285380	     -0.31992893	     22.30934961	    -14.49270545	      0.48195346	    -67.25668267	    -13.30421793	    -12.52490873	     20.48395683	     10.01468412	     15.64792892	     -2.38786334	    -10.23964200	      4.90504060	     -7.10847167	     -6.70342669	      2.38675446	    -10.97562525	      4.83981064
      5.62500000	     -3.81047737	     11.23531092	     -7.64055273	     -0.82300441	     -0.01180104	     -0.32007938	     22.94580067	    -14.01148400	      0.63980348	    -67.10247305	    -12.33505849	    -12.24145509	     20.75733970	      9.10523431	     15.52045974	     -1.76889394	     -9.68378675	      4.90020241	     -7.65696986	     -7.35920020	      2.22599507	    -10.67256186	      4.64443032
      5.63000000	     -3.74752384	     10.92887520	     -7.64296635	     -0.81657178	     -0.01076754	     -0.32015238	     23.58108561	    -13.46919843	      0.73744756	    -66.83049118	    -11.48888680	    -12.06172480	     20.98843447	      8.23354218	     15.31114764	     -1.24088806	     -9.13354536	      5.05631457	     -7.91499102	     -8.15355612	      2.12406976	    -10.32330710	      4.55992410
      5.63500000	     -3.66663371	     10.61663326	     -7.65661419	     -0.81031083	     -0.00974263	     -0.32022665	     24.18589683	    -12.91148553	      0.84428779	    -66.47481901	    -10.70623835	    -11.88841540	     21.24847982	      7.35685659	     15.09470501	     -0.73333496	     -8.58839961	      5.26992218	     -8.20707793	     -9.49949309	      1.97473356	     -9.97143741	      4.33172944
      5.64000000	     -3.78904813	     10.29519640	     -7.66983156	     -0.80409805	     -0.00896355	     -0.32015701	     25.00544319	    -12.28132015	      0.94221756	    -66.04906931	    -10.09240949	    -11.92495449	     21.38435007	      6.73993750	     14.79621837	     -0.56060866	     -8.08282635	      5.41867462	     -8.15885270	     -9.63730577	      2.04388308	     -9.59411058	      4.22816297
      5.64500000	     -3.65790380	      9.94449219	     -7.62882585	     -0.79785805	     -0.00790799	     -0.32026905	     25.44703179	    -11.74017784	      0.89446612	    -65.46370209	     -9.45843208	    -11.86044625	     21.74216505	      5.75206151	     14.54498939	      0.18831248	     -7.47425704	      5.73600865	     -8.54683850	    -11.97323143	      1.82599847	     -9.21927392	      4.03725056
